<svg width="15" height="15" viewBox="0 0 15 15" fill="none" xmlns="http://www.w3.org/2000/svg">
<path d="M11.6886 4.56531C11.5538 4.52116 11.414 4.47939 11.2701 4.43989C11.2938 4.3481 11.3155 4.2575 11.3348 4.16843C11.6516 2.70601 11.4444 1.52788 10.7372 1.13998C10.059 0.768045 8.94987 1.15585 7.82972 2.08295C7.722 2.1721 7.61399 2.26649 7.50602 2.36541C7.43407 2.29996 7.36225 2.23672 7.29061 2.17622C6.11665 1.1849 4.93995 0.767142 4.23337 1.15616C3.55584 1.52917 3.35519 2.63673 3.64035 4.02268C3.66788 4.15655 3.70007 4.29326 3.73647 4.43225C3.56993 4.47721 3.40916 4.52514 3.25532 4.57613C1.87899 5.03249 1 5.74771 1 6.48959C1 7.2558 1.9436 8.02432 3.37715 8.49032C3.49028 8.52709 3.60767 8.56186 3.72865 8.59487C3.68938 8.7452 3.65523 8.89251 3.62656 9.0362C3.35466 10.3981 3.56699 11.4795 4.24272 11.8501C4.94069 12.2329 6.11207 11.8395 7.2527 10.8912C7.34286 10.8163 7.43333 10.7368 7.52397 10.6535C7.64145 10.7611 7.75875 10.8629 7.87542 10.9584C8.98025 11.8626 10.0715 12.2277 10.7466 11.856C11.4438 11.4721 11.6704 10.3105 11.3762 8.89709C11.3538 8.78915 11.3276 8.67887 11.2983 8.56664C11.3805 8.54351 11.4613 8.51963 11.54 8.49481C13.0303 8.0252 14 7.26603 14 6.48959C14 5.74503 13.0927 5.02499 11.6886 4.56531ZM11.3654 7.99347C11.2943 8.01585 11.2213 8.03748 11.147 8.05845C10.9825 7.5631 10.7604 7.03637 10.4887 6.49216C10.748 5.96091 10.9615 5.44091 11.1214 4.94878C11.2544 4.98537 11.3835 5.02397 11.5078 5.06471C12.7108 5.45856 13.4446 6.04089 13.4446 6.48959C13.4446 6.96753 12.6522 7.58797 11.3654 7.99347ZM10.8314 8.99967C10.9615 9.62464 10.9801 10.1897 10.8939 10.6314C10.8165 11.0283 10.6608 11.293 10.4683 11.3989C10.0586 11.6245 9.18247 11.3313 8.2376 10.558C8.12929 10.4694 8.02018 10.3747 7.91073 10.2746C8.27704 9.89356 8.64313 9.45063 9.00043 8.95871C9.62889 8.90567 10.2226 8.81897 10.7611 8.70059C10.7876 8.80233 10.8111 8.90211 10.8314 8.99967ZM5.43199 11.36C5.03172 11.4944 4.71292 11.4983 4.52022 11.3926C4.11015 11.1676 3.93968 10.2994 4.17222 9.1347C4.19885 9.00132 4.23055 8.8643 4.26709 8.72425C4.79963 8.83624 5.38902 8.91683 6.01898 8.9654C6.37869 9.44676 6.75536 9.8892 7.13495 10.2766C7.05201 10.3528 6.9694 10.4252 6.88726 10.4936C6.38288 10.9129 5.87744 11.2103 5.43199 11.36ZM3.55677 7.99054C2.92287 7.78449 2.39938 7.51669 2.04055 7.22446C1.71812 6.96185 1.55533 6.70114 1.55533 6.48959C1.55533 6.03939 2.26107 5.46517 3.43813 5.07487C3.58095 5.02752 3.73045 4.98289 3.88561 4.94096C4.04828 5.44422 4.26167 5.97038 4.5192 6.50244C4.25834 7.0424 4.04192 7.57694 3.87765 8.08609C3.76704 8.05586 3.65988 8.02404 3.55677 7.99054ZM4.18536 3.92125C3.94105 2.73381 4.1033 1.83804 4.51161 1.61326C4.94652 1.37381 5.90823 1.71522 6.92185 2.57118C6.98664 2.62589 7.05169 2.68315 7.11692 2.74239C6.73921 3.1281 6.36599 3.56723 6.00947 4.04575C5.39807 4.09964 4.81282 4.18622 4.27472 4.30215C4.24089 4.17273 4.21093 4.04557 4.18536 3.92125ZM9.79297 5.23812C9.66434 5.02681 9.53228 4.8205 9.39765 4.61982C9.81243 4.66968 10.2098 4.73588 10.583 4.81689C10.471 5.15839 10.3313 5.51545 10.167 5.88149C10.049 5.66858 9.92431 5.4539 9.79297 5.23812ZM7.5062 3.11985C7.76236 3.38378 8.01889 3.67845 8.2712 3.99817C8.01694 3.98675 7.75954 3.9808 7.5 3.9808C7.24292 3.9808 6.98741 3.98661 6.73472 3.99784C6.98729 3.68109 7.24604 3.38682 7.5062 3.11985ZM5.20478 5.24177C5.07629 5.45368 4.95388 5.66719 4.83781 5.8811C4.67609 5.51633 4.53773 5.15764 4.42472 4.8113C4.79563 4.73236 5.19115 4.66781 5.6033 4.61889C5.46677 4.82142 5.33363 5.0293 5.20478 5.24177ZM5.61517 8.39795C5.18935 8.35277 4.78787 8.29155 4.41706 8.21479C4.53188 7.86226 4.67329 7.49591 4.83843 7.12329C4.9548 7.33705 5.0777 7.55065 5.20698 7.76301C5.33867 7.97936 5.47513 8.19129 5.61517 8.39795ZM7.52157 9.89655C7.25835 9.62646 6.99581 9.3277 6.73939 9.00633C6.98831 9.01562 7.24208 9.02037 7.5 9.02037C7.76497 9.02037 8.02692 9.0147 8.28474 9.00378C8.03159 9.33093 7.77599 9.63016 7.52157 9.89655ZM10.1723 7.1043C10.346 7.48095 10.4925 7.84538 10.6088 8.1919C10.2319 8.27368 9.8249 8.33955 9.39612 8.38849C9.53108 8.1851 9.66429 7.97525 9.79519 7.75938C9.92762 7.54098 10.0534 7.32226 10.1723 7.1043ZM9.31414 7.49552C9.11093 7.83062 8.9023 8.15051 8.6905 8.45247C8.30473 8.4787 7.9062 8.49221 7.5 8.49221C7.09545 8.49221 6.70193 8.48026 6.32299 8.45687C6.10266 8.15095 5.88949 7.83011 5.68757 7.4984C5.48619 7.16759 5.30088 6.83399 5.13293 6.50226C5.30084 6.16976 5.4857 5.83578 5.68593 5.50557C5.88669 5.17448 6.09793 4.85527 6.31624 4.55127C6.70286 4.52347 7.09931 4.50897 7.49998 4.50897C7.90245 4.50897 8.29943 4.52358 8.68594 4.55162C8.90091 4.8534 9.11076 5.17164 9.31231 5.50278C9.51615 5.83763 9.7034 6.16939 9.87273 6.49476C9.70391 6.82572 9.51708 7.16082 9.31414 7.49552ZM10.4598 1.59755C10.8951 1.8363 11.0644 2.79919 10.7909 4.06183C10.7734 4.1424 10.7538 4.22446 10.7324 4.30763C10.1931 4.18927 9.60744 4.1012 8.99425 4.04649C8.63705 3.56272 8.26688 3.12291 7.89532 2.74215C7.99522 2.65075 8.09497 2.56361 8.19431 2.48137C9.15406 1.68703 10.0511 1.37341 10.4598 1.59755ZM7.5 5.38557C8.14111 5.38557 8.66086 5.87984 8.66086 6.48959C8.66086 7.09931 8.14111 7.5936 7.5 7.5936C6.85889 7.5936 6.33914 7.09931 6.33914 6.48959C6.33914 5.87984 6.85889 5.38557 7.5 5.38557Z" fill="white"/>
<path d="M5.17614 14V12.5455H5.66761C5.78125 12.5455 5.87453 12.5649 5.94744 12.6037C6.02036 12.642 6.07434 12.6948 6.10938 12.7621C6.14441 12.8293 6.16193 12.9058 6.16193 12.9915C6.16193 13.0772 6.14441 13.1532 6.10938 13.2195C6.07434 13.2857 6.0206 13.3378 5.94815 13.3757C5.87571 13.4131 5.78314 13.4318 5.67045 13.4318H5.27273V13.2727H5.66477C5.74242 13.2727 5.80492 13.2614 5.85227 13.2386C5.90009 13.2159 5.93466 13.1837 5.95597 13.142C5.97775 13.0999 5.98864 13.0497 5.98864 12.9915C5.98864 12.9332 5.97775 12.8823 5.95597 12.8388C5.93419 12.7952 5.89938 12.7616 5.85156 12.7379C5.80374 12.7138 5.74053 12.7017 5.66193 12.7017H5.35227V14H5.17614ZM5.8608 13.3466L6.21875 14H6.0142L5.66193 13.3466H5.8608ZM6.87837 14.0227C6.77326 14.0227 6.68259 13.9995 6.60636 13.9531C6.5306 13.9062 6.47212 13.8409 6.43093 13.7571C6.39021 13.6728 6.36985 13.5748 6.36985 13.4631C6.36985 13.3513 6.39021 13.2528 6.43093 13.1676C6.47212 13.0819 6.52942 13.0152 6.60281 12.9673C6.67667 12.919 6.76284 12.8949 6.86133 12.8949C6.91815 12.8949 6.97425 12.9044 7.02965 12.9233C7.08505 12.9422 7.13548 12.973 7.18093 13.0156C7.22638 13.0578 7.26261 13.1136 7.2896 13.1832C7.31658 13.2528 7.33008 13.3385 7.33008 13.4403V13.5114H6.48917V13.3665H7.15962C7.15962 13.3049 7.14731 13.25 7.12269 13.2017C7.09854 13.1534 7.06398 13.1153 7.019 13.0874C6.97449 13.0594 6.92193 13.0455 6.86133 13.0455C6.79457 13.0455 6.7368 13.062 6.68803 13.0952C6.63974 13.1278 6.60257 13.1705 6.57653 13.223C6.55049 13.2756 6.53746 13.3319 6.53746 13.392V13.4886C6.53746 13.571 6.55167 13.6409 6.58008 13.6982C6.60896 13.755 6.64897 13.7983 6.70011 13.8281C6.75124 13.8575 6.81067 13.8722 6.87837 13.8722C6.92241 13.8722 6.96218 13.866 6.99769 13.8537C7.03368 13.8409 7.06469 13.822 7.09073 13.7969C7.11677 13.7713 7.1369 13.7396 7.1511 13.7017L7.31303 13.7472C7.29599 13.8021 7.26734 13.8504 7.2271 13.892C7.18685 13.9332 7.13713 13.9654 7.07795 13.9886C7.01876 14.0114 6.95224 14.0227 6.87837 14.0227ZM7.90607 14.0256C7.83694 14.0256 7.77421 14.0125 7.71786 13.9865C7.66152 13.96 7.61677 13.9219 7.58363 13.8722C7.55049 13.822 7.53391 13.7614 7.53391 13.6903C7.53391 13.6278 7.54622 13.5772 7.57085 13.5384C7.59547 13.4991 7.62837 13.4683 7.66957 13.446C7.71076 13.4238 7.75621 13.4072 7.80593 13.3963C7.85612 13.3849 7.90655 13.3759 7.95721 13.3693C8.0235 13.3608 8.07724 13.3544 8.11843 13.3501C8.1601 13.3454 8.1904 13.3376 8.20934 13.3267C8.22875 13.3158 8.23846 13.2969 8.23846 13.2699V13.2642C8.23846 13.1941 8.21928 13.1397 8.18093 13.1009C8.14305 13.062 8.08552 13.0426 8.00835 13.0426C7.92833 13.0426 7.86559 13.0601 7.82013 13.0952C7.77468 13.1302 7.74272 13.1676 7.72425 13.2074L7.56516 13.1506C7.59357 13.0843 7.63145 13.0327 7.6788 12.9957C7.72662 12.9583 7.77871 12.9323 7.83505 12.9176C7.89187 12.9025 7.94774 12.8949 8.00266 12.8949C8.0377 12.8949 8.07795 12.8991 8.1234 12.9077C8.16933 12.9157 8.2136 12.9325 8.25621 12.9581C8.2993 12.9837 8.33505 13.0223 8.36346 13.0739C8.39187 13.1255 8.40607 13.1946 8.40607 13.2812V14H8.23846V13.8523H8.22994C8.21857 13.8759 8.19963 13.9013 8.17312 13.9283C8.1466 13.9553 8.11133 13.9782 8.06729 13.9972C8.02326 14.0161 7.96952 14.0256 7.90607 14.0256ZM7.93164 13.875C7.99793 13.875 8.0538 13.862 8.09925 13.8359C8.14518 13.8099 8.17975 13.7763 8.20295 13.7351C8.22662 13.6939 8.23846 13.6506 8.23846 13.6051V13.4517C8.23136 13.4602 8.21573 13.468 8.19158 13.4751C8.16791 13.4818 8.14045 13.4877 8.1092 13.4929C8.07842 13.4976 8.04835 13.5019 8.019 13.5057C7.99012 13.509 7.96668 13.5118 7.94869 13.5142C7.90513 13.5199 7.86441 13.5291 7.82653 13.5419C7.78912 13.5542 7.75882 13.5729 7.73562 13.598C7.71289 13.6226 7.70153 13.6562 7.70153 13.6989C7.70153 13.7571 7.72307 13.8011 7.76616 13.831C7.80972 13.8603 7.86488 13.875 7.93164 13.875ZM9.15518 14.0227C9.05291 14.0227 8.96484 13.9986 8.89098 13.9503C8.81712 13.902 8.7603 13.8355 8.72053 13.7507C8.68075 13.666 8.66087 13.5691 8.66087 13.4602C8.66087 13.3494 8.68123 13.2517 8.72195 13.1669C8.76314 13.0817 8.82043 13.0152 8.89382 12.9673C8.96768 12.919 9.05386 12.8949 9.15234 12.8949C9.22905 12.8949 9.29818 12.9091 9.35973 12.9375C9.42128 12.9659 9.47171 13.0057 9.51101 13.0568C9.55031 13.108 9.57469 13.1676 9.58416 13.2358H9.41655C9.40376 13.1861 9.37536 13.142 9.33132 13.1037C9.28776 13.0649 9.22905 13.0455 9.15518 13.0455C9.08984 13.0455 9.03255 13.0625 8.98331 13.0966C8.93454 13.1302 8.89643 13.1778 8.86896 13.2393C8.84197 13.3004 8.82848 13.3722 8.82848 13.4545C8.82848 13.5388 8.84174 13.6122 8.86825 13.6747C8.89524 13.7372 8.93312 13.7857 8.98189 13.8203C9.03113 13.8549 9.0889 13.8722 9.15518 13.8722C9.19875 13.8722 9.23828 13.8646 9.27379 13.8494C9.3093 13.8343 9.33937 13.8125 9.36399 13.7841C9.38861 13.7557 9.40613 13.7216 9.41655 13.6818H9.58416C9.57469 13.7462 9.55125 13.8042 9.51385 13.8558C9.47692 13.907 9.42791 13.9477 9.36683 13.978C9.30623 14.0078 9.23568 14.0227 9.15518 14.0227ZM10.3036 12.9091V13.0511H9.73828V12.9091H10.3036ZM9.90305 12.6477H10.0707V13.6875C10.0707 13.7348 10.0775 13.7704 10.0913 13.794C10.1055 13.8172 10.1235 13.8329 10.1452 13.8409C10.1675 13.8485 10.1909 13.8523 10.2156 13.8523C10.234 13.8523 10.2492 13.8513 10.261 13.8494C10.2728 13.8471 10.2823 13.8452 10.2894 13.8438L10.3235 13.9943C10.3121 13.9986 10.2963 14.0028 10.2759 14.0071C10.2556 14.0118 10.2298 14.0142 10.1985 14.0142C10.1512 14.0142 10.1048 14.004 10.0593 13.9837C10.0143 13.9633 9.97692 13.9323 9.94709 13.8906C9.91773 13.849 9.90305 13.7964 9.90305 13.733V12.6477Z" fill="white"/>
</svg>
